<svg width="592" height="189" viewBox="0 0 592 189" fill="none" xmlns="http://www.w3.org/2000/svg">
<path d="M174.101 102.06C170.256 117.198 162.913 130.469 152.203 141.786C150.282 143.815 148.55 145.938 146.995 148.147C141.258 156.303 139.094 163.946 137.935 168.25C136.671 172.939 135.351 179.768 135.495 188.152C133.36 188.161 131.223 188.17 129.089 188.176C128.759 181.776 129.302 176.454 129.92 172.612C132.064 159.329 137.326 150.335 138.632 148.078C140.793 144.341 143.374 140.937 146.343 137.785C158.347 125.054 166.233 110.231 168.737 92.7755C173.738 57.9334 152.491 23.7097 119.057 12.8791C109.004 9.62216 98.6533 8.74563 88.114 9.79326C79.1925 10.6818 70.5713 12.627 62.4994 16.5954C47.7245 23.8568 37.6204 35.5399 30.7372 50.2848C25.544 61.4155 24.1902 69.6105 21.8698 80.9664C19.3873 93.1207 15.3889 110.285 8.85994 131.169C14.0651 133.075 19.2672 134.984 24.4694 136.89C24.5685 151.635 24.6645 166.38 24.7606 181.125H94.7149V166.902C86.4629 166.893 78.2109 166.884 69.9589 166.872C69.98 161.955 70.004 157.035 70.025 152.115C81.9452 152.133 93.8654 152.152 105.786 152.167V150.239C93.8834 150.236 81.9752 150.233 70.07 150.233V135.702C82.1823 135.684 94.2947 135.666 106.404 135.648C106.296 130.785 106.911 125.423 108.917 119.939C109.157 119.288 109.355 118.771 109.553 118.306C110.646 115.718 112.189 113.185 117.003 104.336C120.66 97.6205 122.497 94.2674 122.728 93.6431C123.812 90.7463 128.338 78.628 122.518 66.4556C117.814 56.6156 109.025 52.4521 106.71 51.3114C93.2861 44.6894 76.4939 47.7423 66.8521 57.9214C61.4458 63.6279 58.2669 70.397 57.4654 78.2167C56.4598 88.0477 59.4406 96.783 65.2401 104.591C70.3462 111.462 71.628 113.542 73.7983 119.465C74.93 122.545 75.5153 125.198 75.8335 126.966C79.8229 127.05 83.8334 127.122 87.8708 127.176C90.2422 127.206 92.6107 127.233 94.9671 127.254C94.9461 116.139 94.9251 105.023 94.9071 93.9072H87.8708C87.8858 103.267 87.9008 112.627 87.9188 121.986C85.7755 121.977 83.6292 121.968 81.4859 121.962C81.1107 119.897 80.6604 118.195 80.2882 116.943C79.2886 113.575 78.0218 110.94 77.0853 109.186C75.4223 106.065 73.5821 103.543 71.9131 101.583C71.9131 101.583 70.079 98.8992 68.2479 94.9819C67.4314 93.2348 65.0029 88.0447 64.6968 82.3622C64.2975 74.9778 67.4524 66.2365 74.4617 60.557C80.6184 55.568 87.3215 54.8956 89.5908 54.7665C100.223 54.1722 111.108 60.0977 115.758 69.6255C118.033 74.2873 118.183 78.76 118.228 80.4321C118.387 86.3336 116.517 90.9444 114.728 95.4081C114.008 97.2032 112.591 100.088 109.754 105.857C107.458 110.528 107.302 110.66 106.434 112.642C105.266 115.31 103.69 118.957 102.574 123.844C102.018 126.273 101.436 129.635 101.289 133.723C90.9026 133.744 80.5193 133.765 70.1331 133.786C69.8419 131.52 69.2775 128.299 68.0738 124.577C66.2847 119.038 64.1354 114.968 62.0281 111.846C59.7197 108.427 57.0962 105.182 55.148 101.568C51.939 95.6093 50.207 89.1103 50.183 82.3112C50.1109 62.7634 63.2769 44.9986 84.1996 41.3034C103.678 37.8663 122.236 49.3692 129.011 63.5949C131.19 68.1696 132.124 73.0176 132.565 78.0366C133.399 87.4743 130.617 95.8794 125.667 103.735C123.722 106.821 121.767 109.904 119.855 113.014C113.743 122.953 113.314 132.192 112.99 135.416C112.708 138.235 112.681 140.576 112.705 142.134H77.1213C77.1033 142.837 77.0853 143.539 77.0703 144.242C88.9725 144.191 100.878 144.14 112.783 144.089V158.377C100.878 158.371 88.9725 158.368 77.0703 158.362C77.0522 158.924 77.0342 159.482 77.0162 160.04C85.2862 160.127 93.5562 160.211 101.823 160.298C101.856 169.583 101.889 178.868 101.922 188.152C73.9334 188.182 45.9474 188.212 17.9584 188.242C17.9464 187.078 17.7093 166.248 17.6973 165.074C17.6853 163.91 17.4481 143.08 17.4331 141.906C11.6967 139.787 5.96018 137.668 0.220703 135.548C6.73765 116.841 10.4539 101.406 12.6542 90.6202C14.6084 81.0534 14.8966 79.3964 16.4936 71.7058C19.4924 57.267 24.6105 43.7108 33.5559 31.8206C44.9868 16.6344 60.137 7.46385 78.7933 4.00275C86.6851 2.53787 94.6309 1.95551 102.637 2.57089C119.66 3.87668 134.717 10.0814 147.757 21.0711C159.791 31.2172 168.278 43.7919 172.864 58.888C177.199 73.1496 177.787 87.5584 174.101 102.06Z" fill="#F9F9F9"/>
<path d="M225.045 188.242L222.732 141.458H237.052C236.919 151.773 237.256 166.114 236.414 175.075H236.549C240.24 165.561 246.384 151.884 251.17 141.458H264.139C264.413 151.472 265.104 165.72 264.897 174.698H265.077C268.434 164.754 274.395 150.782 278.326 141.458H292.676L269.826 188.242H254.547C254.072 177.124 253.72 164.576 253.853 157.317H253.717C250.926 164.889 244.884 178.226 240.24 188.242H225.045Z" fill="#F9F9F9"/>
<path d="M331.236 169.5H307.527L305.815 177.75H333.086L329.248 188.242H289.583L299.487 141.458H338.482L336.235 151.95H311.265L309.837 159.008H333.546L331.233 169.5H331.236Z" fill="#F9F9F9"/>
<path d="M379.782 169.5H356.072L354.361 177.75H381.632L377.794 188.242H338.128L348.033 141.458H387.027L384.781 151.95H359.811L358.382 159.008H382.092L379.779 169.5H379.782Z" fill="#F9F9F9"/>
<path d="M395.271 141.23H409.528L405.501 160.426C412.136 154.548 418.488 148.811 427.036 141.23H444.399L420.446 161.356L435.532 188.011H419.399L409.39 169.1L402.607 173.961L399.669 188.011H385.325L395.271 141.227V141.23Z" fill="#F9F9F9"/>
<path d="M237.474 82.1318H222.688L224.935 71.6396H268.85L266.604 82.1318H251.842L244.229 118.421H229.819L237.477 82.1318H237.474Z" fill="#F9F9F9"/>
<path d="M282.99 101.124L279.36 118.424H265.221L275.101 71.6396H299.951C309.816 71.6396 316.153 76.4674 316.153 84.2116C316.153 91.0348 311.837 94.8603 306.294 96.6541C308.128 97.6504 311.852 100.308 310.144 108.407C309.157 112.754 308.754 116.182 309.061 118.424H295.087C294.684 116.456 294.735 113.581 296.013 107.971C297.033 103.228 296.465 101.124 291.881 101.124H282.99ZM285.011 91.5435H293.887C297.908 91.5435 301.127 89.9784 301.127 86.0054C301.127 83.1582 299.238 81.5931 295.674 81.5931H287.087L285.014 91.5435H285.011Z" fill="#F9F9F9"/>
<path d="M333.714 109.472L328.577 118.42H313.487L340.259 71.6357H359.105L367.225 118.42H352.671L351.339 109.472H333.717H333.714ZM349.949 99.0039C348.885 91.6118 348.097 85.1407 347.832 81.2701H347.624C345.922 85.2671 342.788 91.6359 338.962 99.0039H349.949Z" fill="#F9F9F9"/>
<path d="M396.218 71.6396L386.313 118.424H371.904L381.808 71.6396H396.218Z" fill="#F9F9F9"/>
<path d="M396.827 118.42L406.732 71.6357H423.674C430.143 88.6261 432.165 95.4403 433.756 101.535H433.981C434.372 97.2522 436.249 88.0753 437.888 80.3371L439.756 71.6357H452.83L442.926 118.42H426.916C424.799 111.687 418.098 91.4974 416.63 85.4537H416.428C415.749 91.0821 414.04 98.7992 412.311 107.043L409.923 118.42H396.824H396.827Z" fill="#F9F9F9"/>
<path d="M477.772 71.6396L467.868 118.424H453.458L463.362 71.6396H477.772Z" fill="#F9F9F9"/>
<path d="M478.389 118.42L488.293 71.6357H505.235C511.705 88.6261 513.726 95.4403 515.317 101.535H515.543C515.934 97.2522 517.81 88.0753 519.45 80.3371L521.317 71.6357H534.392L524.487 118.42H508.477C506.36 111.687 499.659 91.4974 498.191 85.4537H497.99C497.31 91.0821 495.602 98.7992 493.872 107.043L491.484 118.42H478.385H478.389Z" fill="#F9F9F9"/>
<path d="M581.498 118.423H571.696C571.537 117.403 571.513 116.087 571.642 114.33C568.737 117.303 564.917 119.492 556.902 119.492C542.883 119.492 537.033 109.785 537.033 99.0099C537.033 84.4755 547.22 70.5732 566.099 70.5732C580.256 70.5732 587.43 77.3603 588.23 85.8149H573.712C573.426 83.5545 571.708 80.4544 565.498 80.4544C557.256 80.4544 552.399 89.5802 552.399 98.3959C552.399 105.46 555.157 109.355 561.178 109.355C568.761 109.355 570.478 104.181 571.161 101.652L571.227 101.454H561.684L564.418 91.2265H587.216L581.495 118.426L581.498 118.423Z" fill="#F9F9F9"/>
<path d="M232.636 2.05273H258.157C268.825 2.05273 273.95 6.65472 273.95 13.5983C273.95 18.8173 270.783 22.7421 265.008 24.5209C268.584 25.9415 271.625 29.2915 271.625 33.9025C271.583 45.2916 260.948 48.8371 250.712 48.8371H222.732L232.636 2.05273ZM238.958 39.1847H248.98C253.786 39.1847 256.478 37.749 256.478 33.9506C256.478 31.3893 254.671 29.6526 250.538 29.6526H240.962L238.955 39.1847H238.958ZM252.664 20.0724C256.352 20.0724 259.041 18.9829 259.041 15.63C259.041 12.9061 257.113 11.7654 253.943 11.7654H244.772L242.986 20.0694H252.664V20.0724Z" fill="#F9F9F9"/>
<path d="M317.559 30.0951H293.85L292.138 38.3449H319.409L315.571 48.8371H275.906L285.813 2.05273H324.808L322.561 12.5449H297.591L296.163 19.6029H319.872L317.559 30.0951Z" fill="#F9F9F9"/>
<path d="M338.22 34.4302C338.828 37.9366 341.58 40.3084 347.174 40.3084C351.379 40.3084 354.534 39.1887 354.534 35.8749C354.534 33.3738 353.057 31.9561 345.908 30.1202C333.465 26.9268 329.275 23.1585 329.275 16.6182C329.275 7.23061 337.426 0.988281 350.458 0.988281C366.113 0.988281 371.5 8.32618 371.831 15.3059H358.185C357.812 13.0516 356.278 10.4541 350.404 10.4541C346.753 10.4541 344.551 12.1667 344.551 14.5866C344.551 17.16 346.69 18.0268 353.087 19.6099C366.426 22.9328 369.933 27.4776 369.933 34.1021C369.933 43.3874 361.677 49.9066 346.506 49.9066C332.707 49.9066 325.143 44.4709 324.294 34.4272H338.217L338.22 34.4302Z" fill="#F9F9F9"/>
<path d="M390.272 12.5449H375.487L377.733 2.05273H421.649L419.402 12.5449H404.64L397.028 48.8341H382.618L390.275 12.5449H390.272Z" fill="#F9F9F9"/>
</svg>
